<?xml version="1.0" encoding="UTF-8" standalone="no"?>
<!DOCTYPE svg PUBLIC "-//W3C//DTD SVG 1.1//EN"
 "http://www.w3.org/Graphics/SVG/1.1/DTD/svg11.dtd">
<!-- Generated by graphviz version 2.43.0 (0)
 -->
<!-- Title: G Pages: 1 -->
<svg width="1433pt" height="333pt"
 viewBox="0.00 0.00 1433.20 333.20" xmlns="http://www.w3.org/2000/svg" xmlns:xlink="http://www.w3.org/1999/xlink">
<g id="graph0" class="graph" transform="scale(1 1) rotate(0) translate(21.6 311.6)">
<title>G</title>
<polygon fill="#111111" stroke="transparent" points="-21.6,21.6 -21.6,-311.6 1411.6,-311.6 1411.6,21.6 -21.6,21.6"/>
<!-- .eslintrc.js -->
<g id="node1" class="node">
<title>.eslintrc.js</title>
<path fill="none" stroke="#cfffac" d="M198.33,-23C198.33,-23 136.67,-23 136.67,-23 132.83,-23 129,-19.17 129,-15.33 129,-15.33 129,-7.67 129,-7.67 129,-3.83 132.83,0 136.67,0 136.67,0 198.33,0 198.33,0 202.17,0 206,-3.83 206,-7.67 206,-7.67 206,-15.33 206,-15.33 206,-19.17 202.17,-23 198.33,-23"/>
<text text-anchor="middle" x="167.5" y="-7.8" font-family="Arial" font-size="14.00" fill="#cfffac">.eslintrc.js</text>
</g>
<!-- babel.config.js -->
<g id="node2" class="node">
<title>babel.config.js</title>
<path fill="none" stroke="#cfffac" d="M211.33,-64C211.33,-64 123.67,-64 123.67,-64 119.83,-64 116,-60.17 116,-56.33 116,-56.33 116,-48.67 116,-48.67 116,-44.83 119.83,-41 123.67,-41 123.67,-41 211.33,-41 211.33,-41 215.17,-41 219,-44.83 219,-48.67 219,-48.67 219,-56.33 219,-56.33 219,-60.17 215.17,-64 211.33,-64"/>
<text text-anchor="middle" x="167.5" y="-48.8" font-family="Arial" font-size="14.00" fill="#cfffac">babel.config.js</text>
</g>
<!-- index.js -->
<g id="node3" class="node">
<title>index.js</title>
<path fill="none" stroke="#c6c5fe" d="M604.83,-249C604.83,-249 558.17,-249 558.17,-249 554.33,-249 550.5,-245.17 550.5,-241.33 550.5,-241.33 550.5,-233.67 550.5,-233.67 550.5,-229.83 554.33,-226 558.17,-226 558.17,-226 604.83,-226 604.83,-226 608.67,-226 612.5,-229.83 612.5,-233.67 612.5,-233.67 612.5,-241.33 612.5,-241.33 612.5,-245.17 608.67,-249 604.83,-249"/>
<text text-anchor="middle" x="581.5" y="-233.8" font-family="Arial" font-size="14.00" fill="#c6c5fe">index.js</text>
</g>
<!-- lib/http/http&#45;response&#45;codes.js -->
<g id="node4" class="node">
<title>lib/http/http&#45;response&#45;codes.js</title>
<path fill="none" stroke="#cfffac" d="M1200.33,-209C1200.33,-209 1018.67,-209 1018.67,-209 1014.83,-209 1011,-205.17 1011,-201.33 1011,-201.33 1011,-193.67 1011,-193.67 1011,-189.83 1014.83,-186 1018.67,-186 1018.67,-186 1200.33,-186 1200.33,-186 1204.17,-186 1208,-189.83 1208,-193.67 1208,-193.67 1208,-201.33 1208,-201.33 1208,-205.17 1204.17,-209 1200.33,-209"/>
<text text-anchor="middle" x="1109.5" y="-193.8" font-family="Arial" font-size="14.00" fill="#cfffac">lib/http/http&#45;response&#45;codes.js</text>
</g>
<!-- index.js&#45;&gt;lib/http/http&#45;response&#45;codes.js -->
<g id="edge1" class="edge">
<title>index.js&#45;&gt;lib/http/http&#45;response&#45;codes.js</title>
<path fill="none" stroke="#757575" d="M612.53,-232.97C643.79,-228.41 694.22,-221.49 738,-217.5 826.23,-209.46 926.59,-204.28 1000.59,-201.22"/>
<polygon fill="#757575" stroke="#757575" points="1001,-204.7 1010.85,-200.8 1000.71,-197.71 1001,-204.7"/>
</g>
<!-- lib/http/http&#45;responses.js -->
<g id="node5" class="node">
<title>lib/http/http&#45;responses.js</title>
<path fill="none" stroke="#c6c5fe" d="M930.33,-290C930.33,-290 782.67,-290 782.67,-290 778.83,-290 775,-286.17 775,-282.33 775,-282.33 775,-274.67 775,-274.67 775,-270.83 778.83,-267 782.67,-267 782.67,-267 930.33,-267 930.33,-267 934.17,-267 938,-270.83 938,-274.67 938,-274.67 938,-282.33 938,-282.33 938,-286.17 934.17,-290 930.33,-290"/>
<text text-anchor="middle" x="856.5" y="-274.8" font-family="Arial" font-size="14.00" fill="#c6c5fe">lib/http/http&#45;responses.js</text>
</g>
<!-- index.js&#45;&gt;lib/http/http&#45;responses.js -->
<g id="edge2" class="edge">
<title>index.js&#45;&gt;lib/http/http&#45;responses.js</title>
<path fill="none" stroke="#757575" d="M612.76,-242.04C650.12,-247.66 715.29,-257.44 768.69,-265.46"/>
<polygon fill="#757575" stroke="#757575" points="768.45,-268.97 778.86,-266.99 769.49,-262.04 768.45,-268.97"/>
</g>
<!-- lib/logger/logger.js -->
<g id="node6" class="node">
<title>lib/logger/logger.js</title>
<path fill="none" stroke="#cfffac" d="M911.33,-249C911.33,-249 801.67,-249 801.67,-249 797.83,-249 794,-245.17 794,-241.33 794,-241.33 794,-233.67 794,-233.67 794,-229.83 797.83,-226 801.67,-226 801.67,-226 911.33,-226 911.33,-226 915.17,-226 919,-229.83 919,-233.67 919,-233.67 919,-241.33 919,-241.33 919,-245.17 915.17,-249 911.33,-249"/>
<text text-anchor="middle" x="856.5" y="-233.8" font-family="Arial" font-size="14.00" fill="#cfffac">lib/logger/logger.js</text>
</g>
<!-- index.js&#45;&gt;lib/logger/logger.js -->
<g id="edge3" class="edge">
<title>index.js&#45;&gt;lib/logger/logger.js</title>
<path fill="none" stroke="#757575" d="M612.76,-237.5C653.73,-237.5 728.12,-237.5 783.79,-237.5"/>
<polygon fill="#757575" stroke="#757575" points="783.96,-241 793.96,-237.5 783.96,-234 783.96,-241"/>
</g>
<!-- weeks.js -->
<g id="node7" class="node">
<title>weeks.js</title>
<path fill="none" stroke="#c6c5fe" d="M882.83,-169C882.83,-169 830.17,-169 830.17,-169 826.33,-169 822.5,-165.17 822.5,-161.33 822.5,-161.33 822.5,-153.67 822.5,-153.67 822.5,-149.83 826.33,-146 830.17,-146 830.17,-146 882.83,-146 882.83,-146 886.67,-146 890.5,-149.83 890.5,-153.67 890.5,-153.67 890.5,-161.33 890.5,-161.33 890.5,-165.17 886.67,-169 882.83,-169"/>
<text text-anchor="middle" x="856.5" y="-153.8" font-family="Arial" font-size="14.00" fill="#c6c5fe">weeks.js</text>
</g>
<!-- index.js&#45;&gt;weeks.js -->
<g id="edge4" class="edge">
<title>index.js&#45;&gt;weeks.js</title>
<path fill="none" stroke="#757575" d="M612.72,-237.26C637.82,-235.97 673.84,-231.5 702,-217.5 721.71,-207.7 718.55,-193.81 738,-183.5 760.89,-171.37 789.18,-164.89 812.26,-161.43"/>
<polygon fill="#757575" stroke="#757575" points="813.02,-164.86 822.46,-160.05 812.08,-157.93 813.02,-164.86"/>
</g>
<!-- lib/http/http&#45;responses.js&#45;&gt;lib/http/http&#45;response&#45;codes.js -->
<g id="edge6" class="edge">
<title>lib/http/http&#45;responses.js&#45;&gt;lib/http/http&#45;response&#45;codes.js</title>
<path fill="none" stroke="#757575" d="M938.11,-267.64C950.59,-265.14 963.23,-262.12 975,-258.5 1011.87,-247.15 1051.83,-227.89 1078.32,-214.04"/>
<polygon fill="#757575" stroke="#757575" points="1080.24,-216.99 1087.44,-209.21 1076.97,-210.8 1080.24,-216.99"/>
</g>
<!-- lib/weeks/julian&#45;day.js -->
<g id="node19" class="node">
<title>lib/weeks/julian&#45;day.js</title>
<path fill="none" stroke="#cfffac" d="M1382.33,-149C1382.33,-149 1251.67,-149 1251.67,-149 1247.83,-149 1244,-145.17 1244,-141.33 1244,-141.33 1244,-133.67 1244,-133.67 1244,-129.83 1247.83,-126 1251.67,-126 1251.67,-126 1382.33,-126 1382.33,-126 1386.17,-126 1390,-129.83 1390,-133.67 1390,-133.67 1390,-141.33 1390,-141.33 1390,-145.17 1386.17,-149 1382.33,-149"/>
<text text-anchor="middle" x="1317" y="-133.8" font-family="Arial" font-size="14.00" fill="#cfffac">lib/weeks/julian&#45;day.js</text>
</g>
<!-- weeks.js&#45;&gt;lib/weeks/julian&#45;day.js -->
<g id="edge18" class="edge">
<title>weeks.js&#45;&gt;lib/weeks/julian&#45;day.js</title>
<path fill="none" stroke="#757575" d="M890.84,-156.05C962.17,-152.93 1131.35,-145.55 1233.49,-141.1"/>
<polygon fill="#757575" stroke="#757575" points="1233.93,-144.58 1243.77,-140.65 1233.63,-137.59 1233.93,-144.58"/>
</g>
<!-- lib/weeks/week21c.js -->
<g id="node20" class="node">
<title>lib/weeks/week21c.js</title>
<path fill="none" stroke="#c6c5fe" d="M1173.33,-129C1173.33,-129 1045.67,-129 1045.67,-129 1041.83,-129 1038,-125.17 1038,-121.33 1038,-121.33 1038,-113.67 1038,-113.67 1038,-109.83 1041.83,-106 1045.67,-106 1045.67,-106 1173.33,-106 1173.33,-106 1177.17,-106 1181,-109.83 1181,-113.67 1181,-113.67 1181,-121.33 1181,-121.33 1181,-125.17 1177.17,-129 1173.33,-129"/>
<text text-anchor="middle" x="1109.5" y="-113.8" font-family="Arial" font-size="14.00" fill="#c6c5fe">lib/weeks/week21c.js</text>
</g>
<!-- weeks.js&#45;&gt;lib/weeks/week21c.js -->
<g id="edge19" class="edge">
<title>weeks.js&#45;&gt;lib/weeks/week21c.js</title>
<path fill="none" stroke="#757575" d="M890.57,-152.23C925.3,-146.7 981.21,-137.79 1027.7,-130.38"/>
<polygon fill="#757575" stroke="#757575" points="1028.45,-133.8 1037.77,-128.77 1027.35,-126.89 1028.45,-133.8"/>
</g>
<!-- jest.config.js -->
<g id="node8" class="node">
<title>jest.config.js</title>
<path fill="none" stroke="#cfffac" d="M205.33,-228C205.33,-228 129.67,-228 129.67,-228 125.83,-228 122,-224.17 122,-220.33 122,-220.33 122,-212.67 122,-212.67 122,-208.83 125.83,-205 129.67,-205 129.67,-205 205.33,-205 205.33,-205 209.17,-205 213,-208.83 213,-212.67 213,-212.67 213,-220.33 213,-220.33 213,-224.17 209.17,-228 205.33,-228"/>
<text text-anchor="middle" x="167.5" y="-212.8" font-family="Arial" font-size="14.00" fill="#cfffac">jest.config.js</text>
</g>
<!-- lib/http/__test__/responses.test.js -->
<g id="node9" class="node">
<title>lib/http/__test__/responses.test.js</title>
<path fill="none" stroke="#c6c5fe" d="M682.33,-290C682.33,-290 480.67,-290 480.67,-290 476.83,-290 473,-286.17 473,-282.33 473,-282.33 473,-274.67 473,-274.67 473,-270.83 476.83,-267 480.67,-267 480.67,-267 682.33,-267 682.33,-267 686.17,-267 690,-270.83 690,-274.67 690,-274.67 690,-282.33 690,-282.33 690,-286.17 686.17,-290 682.33,-290"/>
<text text-anchor="middle" x="581.5" y="-274.8" font-family="Arial" font-size="14.00" fill="#c6c5fe">lib/http/__test__/responses.test.js</text>
</g>
<!-- lib/http/__test__/responses.test.js&#45;&gt;lib/http/http&#45;responses.js -->
<g id="edge5" class="edge">
<title>lib/http/__test__/responses.test.js&#45;&gt;lib/http/http&#45;responses.js</title>
<path fill="none" stroke="#757575" d="M690,-278.5C714.68,-278.5 740.68,-278.5 764.58,-278.5"/>
<polygon fill="#757575" stroke="#757575" points="764.68,-282 774.68,-278.5 764.68,-275 764.68,-282"/>
</g>
<!-- lib/rsis/__tests__/needUnitsForPeriod.spec.js -->
<g id="node10" class="node">
<title>lib/rsis/__tests__/needUnitsForPeriod.spec.js</title>
<path fill="none" stroke="#c6c5fe" d="M303.33,-187C303.33,-187 31.67,-187 31.67,-187 27.83,-187 24,-183.17 24,-179.33 24,-179.33 24,-171.67 24,-171.67 24,-167.83 27.83,-164 31.67,-164 31.67,-164 303.33,-164 303.33,-164 307.17,-164 311,-167.83 311,-171.67 311,-171.67 311,-179.33 311,-179.33 311,-183.17 307.17,-187 303.33,-187"/>
<text text-anchor="middle" x="167.5" y="-171.8" font-family="Arial" font-size="14.00" fill="#c6c5fe">lib/rsis/__tests__/needUnitsForPeriod.spec.js</text>
</g>
<!-- rsis.js -->
<g id="node11" class="node">
<title>rsis.js</title>
<path fill="none" stroke="#c6c5fe" d="M417.33,-146C417.33,-146 378.67,-146 378.67,-146 374.83,-146 371,-142.17 371,-138.33 371,-138.33 371,-130.67 371,-130.67 371,-126.83 374.83,-123 378.67,-123 378.67,-123 417.33,-123 417.33,-123 421.17,-123 425,-126.83 425,-130.67 425,-130.67 425,-138.33 425,-138.33 425,-142.17 421.17,-146 417.33,-146"/>
<text text-anchor="middle" x="398" y="-130.8" font-family="Arial" font-size="14.00" fill="#c6c5fe">rsis.js</text>
</g>
<!-- lib/rsis/__tests__/needUnitsForPeriod.spec.js&#45;&gt;rsis.js -->
<g id="edge7" class="edge">
<title>lib/rsis/__tests__/needUnitsForPeriod.spec.js&#45;&gt;rsis.js</title>
<path fill="none" stroke="#757575" d="M289.5,-163.95C304.9,-161.61 320.38,-158.82 335,-155.5 343.6,-153.55 352.69,-150.85 361.18,-148.04"/>
<polygon fill="#757575" stroke="#757575" points="362.48,-151.29 370.8,-144.72 360.2,-144.67 362.48,-151.29"/>
</g>
<!-- lib/rsis/needUnitsForPeriod.js -->
<g id="node14" class="node">
<title>lib/rsis/needUnitsForPeriod.js</title>
<path fill="none" stroke="#cfffac" d="M669.83,-85C669.83,-85 493.17,-85 493.17,-85 489.33,-85 485.5,-81.17 485.5,-77.33 485.5,-77.33 485.5,-69.67 485.5,-69.67 485.5,-65.83 489.33,-62 493.17,-62 493.17,-62 669.83,-62 669.83,-62 673.67,-62 677.5,-65.83 677.5,-69.67 677.5,-69.67 677.5,-77.33 677.5,-77.33 677.5,-81.17 673.67,-85 669.83,-85"/>
<text text-anchor="middle" x="581.5" y="-69.8" font-family="Arial" font-size="14.00" fill="#cfffac">lib/rsis/needUnitsForPeriod.js</text>
</g>
<!-- rsis.js&#45;&gt;lib/rsis/needUnitsForPeriod.js -->
<g id="edge16" class="edge">
<title>rsis.js&#45;&gt;lib/rsis/needUnitsForPeriod.js</title>
<path fill="none" stroke="#757575" d="M412.82,-122.88C424.8,-113.45 442.99,-100.59 461,-93.5 466.45,-91.35 472.14,-89.44 477.93,-87.72"/>
<polygon fill="#757575" stroke="#757575" points="479.05,-91.05 487.78,-85.04 477.21,-84.29 479.05,-91.05"/>
</g>
<!-- lib/rsis/workDate.js -->
<g id="node15" class="node">
<title>lib/rsis/workDate.js</title>
<path fill="none" stroke="#c6c5fe" d="M638.33,-208C638.33,-208 524.67,-208 524.67,-208 520.83,-208 517,-204.17 517,-200.33 517,-200.33 517,-192.67 517,-192.67 517,-188.83 520.83,-185 524.67,-185 524.67,-185 638.33,-185 638.33,-185 642.17,-185 646,-188.83 646,-192.67 646,-192.67 646,-200.33 646,-200.33 646,-204.17 642.17,-208 638.33,-208"/>
<text text-anchor="middle" x="581.5" y="-192.8" font-family="Arial" font-size="14.00" fill="#c6c5fe">lib/rsis/workDate.js</text>
</g>
<!-- rsis.js&#45;&gt;lib/rsis/workDate.js -->
<g id="edge17" class="edge">
<title>rsis.js&#45;&gt;lib/rsis/workDate.js</title>
<path fill="none" stroke="#757575" d="M412.3,-146.03C424.24,-155.73 442.65,-169.16 461,-176.5 475.34,-182.24 491.28,-186.33 506.73,-189.25"/>
<polygon fill="#757575" stroke="#757575" points="506.33,-192.73 516.79,-191 507.54,-185.83 506.33,-192.73"/>
</g>
<!-- lib/rsis/__tests__/work&#45;Date&#45;msFromMidnight.spec.js -->
<g id="node12" class="node">
<title>lib/rsis/__tests__/work&#45;Date&#45;msFromMidnight.spec.js</title>
<path fill="none" stroke="#c6c5fe" d="M327.33,-146C327.33,-146 7.67,-146 7.67,-146 3.83,-146 0,-142.17 0,-138.33 0,-138.33 0,-130.67 0,-130.67 0,-126.83 3.83,-123 7.67,-123 7.67,-123 327.33,-123 327.33,-123 331.17,-123 335,-126.83 335,-130.67 335,-130.67 335,-138.33 335,-138.33 335,-142.17 331.17,-146 327.33,-146"/>
<text text-anchor="middle" x="167.5" y="-130.8" font-family="Arial" font-size="14.00" fill="#c6c5fe">lib/rsis/__tests__/work&#45;Date&#45;msFromMidnight.spec.js</text>
</g>
<!-- lib/rsis/__tests__/work&#45;Date&#45;msFromMidnight.spec.js&#45;&gt;rsis.js -->
<g id="edge8" class="edge">
<title>lib/rsis/__tests__/work&#45;Date&#45;msFromMidnight.spec.js&#45;&gt;rsis.js</title>
<path fill="none" stroke="#757575" d="M335.16,-134.5C344.31,-134.5 352.88,-134.5 360.56,-134.5"/>
<polygon fill="#757575" stroke="#757575" points="360.78,-138 370.78,-134.5 360.78,-131 360.78,-138"/>
</g>
<!-- lib/rsis/__tests__/workDate&#45;day.spec.js -->
<g id="node13" class="node">
<title>lib/rsis/__tests__/workDate&#45;day.spec.js</title>
<path fill="none" stroke="#c6c5fe" d="M284.33,-105C284.33,-105 50.67,-105 50.67,-105 46.83,-105 43,-101.17 43,-97.33 43,-97.33 43,-89.67 43,-89.67 43,-85.83 46.83,-82 50.67,-82 50.67,-82 284.33,-82 284.33,-82 288.17,-82 292,-85.83 292,-89.67 292,-89.67 292,-97.33 292,-97.33 292,-101.17 288.17,-105 284.33,-105"/>
<text text-anchor="middle" x="167.5" y="-89.8" font-family="Arial" font-size="14.00" fill="#c6c5fe">lib/rsis/__tests__/workDate&#45;day.spec.js</text>
</g>
<!-- lib/rsis/__tests__/workDate&#45;day.spec.js&#45;&gt;rsis.js -->
<g id="edge9" class="edge">
<title>lib/rsis/__tests__/workDate&#45;day.spec.js&#45;&gt;rsis.js</title>
<path fill="none" stroke="#757575" d="M282.73,-105.04C300.33,-107.64 318.22,-110.77 335,-114.5 343.57,-116.41 352.64,-118.99 361.13,-121.68"/>
<polygon fill="#757575" stroke="#757575" points="360.16,-125.04 370.75,-124.83 362.34,-118.39 360.16,-125.04"/>
</g>
<!-- lib/rsis/workDate.js&#45;&gt;weeks.js -->
<g id="edge10" class="edge">
<title>lib/rsis/workDate.js&#45;&gt;weeks.js</title>
<path fill="none" stroke="#757575" d="M646.16,-187.41C697.32,-180.1 767.79,-170.03 812.49,-163.64"/>
<polygon fill="#757575" stroke="#757575" points="813.05,-167.1 822.45,-162.22 812.06,-160.17 813.05,-167.1"/>
</g>
<!-- lib/weeks/__tests__/dataset&#45;helper.js -->
<g id="node16" class="node">
<title>lib/weeks/__tests__/dataset&#45;helper.js</title>
<path fill="none" stroke="#cfffac" d="M967.33,-127C967.33,-127 745.67,-127 745.67,-127 741.83,-127 738,-123.17 738,-119.33 738,-119.33 738,-111.67 738,-111.67 738,-107.83 741.83,-104 745.67,-104 745.67,-104 967.33,-104 967.33,-104 971.17,-104 975,-107.83 975,-111.67 975,-111.67 975,-119.33 975,-119.33 975,-123.17 971.17,-127 967.33,-127"/>
<text text-anchor="middle" x="856.5" y="-111.8" font-family="Arial" font-size="14.00" fill="#cfffac">lib/weeks/__tests__/dataset&#45;helper.js</text>
</g>
<!-- lib/weeks/__tests__/julian&#45;day.spec.js -->
<g id="node17" class="node">
<title>lib/weeks/__tests__/julian&#45;day.spec.js</title>
<path fill="none" stroke="#c6c5fe" d="M694.33,-167C694.33,-167 468.67,-167 468.67,-167 464.83,-167 461,-163.17 461,-159.33 461,-159.33 461,-151.67 461,-151.67 461,-147.83 464.83,-144 468.67,-144 468.67,-144 694.33,-144 694.33,-144 698.17,-144 702,-147.83 702,-151.67 702,-151.67 702,-159.33 702,-159.33 702,-163.17 698.17,-167 694.33,-167"/>
<text text-anchor="middle" x="581.5" y="-151.8" font-family="Arial" font-size="14.00" fill="#c6c5fe">lib/weeks/__tests__/julian&#45;day.spec.js</text>
</g>
<!-- lib/weeks/__tests__/julian&#45;day.spec.js&#45;&gt;weeks.js -->
<g id="edge12" class="edge">
<title>lib/weeks/__tests__/julian&#45;day.spec.js&#45;&gt;weeks.js</title>
<path fill="none" stroke="#757575" d="M702.24,-156.38C741.46,-156.66 782.55,-156.97 812.3,-157.18"/>
<polygon fill="#757575" stroke="#757575" points="812.3,-160.68 822.33,-157.26 812.35,-153.68 812.3,-160.68"/>
</g>
<!-- lib/weeks/__tests__/julian&#45;day.spec.js&#45;&gt;lib/weeks/__tests__/dataset&#45;helper.js -->
<g id="edge11" class="edge">
<title>lib/weeks/__tests__/julian&#45;day.spec.js&#45;&gt;lib/weeks/__tests__/dataset&#45;helper.js</title>
<path fill="none" stroke="#757575" d="M661.1,-143.98C694.21,-139.13 732.91,-133.46 767.03,-128.46"/>
<polygon fill="#757575" stroke="#757575" points="767.6,-131.92 776.99,-127 766.58,-124.99 767.6,-131.92"/>
</g>
<!-- lib/weeks/__tests__/week21c.spec.js -->
<g id="node18" class="node">
<title>lib/weeks/__tests__/week21c.spec.js</title>
<path fill="none" stroke="#c6c5fe" d="M692.33,-126C692.33,-126 470.67,-126 470.67,-126 466.83,-126 463,-122.17 463,-118.33 463,-118.33 463,-110.67 463,-110.67 463,-106.83 466.83,-103 470.67,-103 470.67,-103 692.33,-103 692.33,-103 696.17,-103 700,-106.83 700,-110.67 700,-110.67 700,-118.33 700,-118.33 700,-122.17 696.17,-126 692.33,-126"/>
<text text-anchor="middle" x="581.5" y="-110.8" font-family="Arial" font-size="14.00" fill="#c6c5fe">lib/weeks/__tests__/week21c.spec.js</text>
</g>
<!-- lib/weeks/__tests__/week21c.spec.js&#45;&gt;weeks.js -->
<g id="edge14" class="edge">
<title>lib/weeks/__tests__/week21c.spec.js&#45;&gt;weeks.js</title>
<path fill="none" stroke="#757575" d="M655.66,-126.02C705.71,-133.91 770.35,-144.09 812.35,-150.7"/>
<polygon fill="#757575" stroke="#757575" points="811.84,-154.17 822.26,-152.26 812.93,-147.25 811.84,-154.17"/>
</g>
<!-- lib/weeks/__tests__/week21c.spec.js&#45;&gt;lib/weeks/__tests__/dataset&#45;helper.js -->
<g id="edge13" class="edge">
<title>lib/weeks/__tests__/week21c.spec.js&#45;&gt;lib/weeks/__tests__/dataset&#45;helper.js</title>
<path fill="none" stroke="#757575" d="M700.26,-114.93C709.27,-114.96 718.4,-115 727.48,-115.03"/>
<polygon fill="#757575" stroke="#757575" points="727.69,-118.53 737.7,-115.07 727.71,-111.53 727.69,-118.53"/>
</g>
<!-- lib/weeks/week21c.js&#45;&gt;lib/weeks/julian&#45;day.js -->
<g id="edge15" class="edge">
<title>lib/weeks/week21c.js&#45;&gt;lib/weeks/julian&#45;day.js</title>
<path fill="none" stroke="#757575" d="M1181.22,-124.38C1198.11,-126.03 1216.28,-127.79 1233.64,-129.48"/>
<polygon fill="#757575" stroke="#757575" points="1233.46,-132.98 1243.75,-130.47 1234.14,-126.02 1233.46,-132.98"/>
</g>
</g>
</svg>
